{
  "accessors": [
    {
      "bufferView": 2,
      "componentType": 5126,
      "count": 66,
      "max": [
        1,
        1,
        1
      ],
      "min": [
        -1,
        -1.7201700210571289,
        -1
      ],
      "type": "VEC3"
    },
    {
      "bufferView": 2,
      "byteOffset": 792,
      "componentType": 5126,
      "count": 66,
      "max": [
        1,
        1,
        1
      ],
      "min": [
        -1,
        -1,
        -1
      ],
      "type": "VEC3"
    },
    {
      "bufferView": 0,
      "componentType": 5125,
      "count": 144,
      "max": [
        65
      ],
      "min": [
        0
      ],
      "type": "SCALAR"
    },
    {
      "bufferView": 2,
      "byteOffset": 1584,
      "componentType": 5126,
      "count": 12300,
      "max": [
        3.6354498863220215,
        1.0712499618530273,
        1.0712499618530273
      ],
      "min": [
        0.15249000489711761,
        -1.0712499618530273,
        -1.0712499618530273
      ],
      "type": "VEC3"
    },
    {
      "bufferView": 2,
      "byteOffset": 149184,
      "componentType": 5126,
      "count": 12300,
      "max": [
        1,
        1,
        1
      ],
      "min": [
        -1,
        -1,
        -1
      ],
      "type": "VEC3"
    },
    {
      "bufferView": 3,
      "componentType": 5126,
      "count": 12300,
      "max": [
        0.99933773279190063,
        0.1425420343875885,
        1,
        1
      ],
      "min": [
        -1,
        -0.14254283905029297,
        0,
        -1
      ],
      "type": "VEC4"
    },
    {
      "bufferView": 0,
      "byteOffset": 576,
      "componentType": 5125,
      "count": 73728,
      "max": [
        12299
      ],
      "min": [
        0
      ],
      "type": "SCALAR"
    },
    {
      "bufferView": 2,
      "byteOffset": 296784,
      "componentType": 5126,
      "count": 900,
      "max": [
        0.14621999859809875,
        -0.55099999904632568,
        -0.72301000356674194
      ],
      "min": [
        -0.28529998660087585,
        -0.84305000305175781,
        -0.89850002527236938
      ],
      "type": "VEC3"
    },
    {
      "bufferView": 2,
      "byteOffset": 307584,
      "componentType": 5126,
      "count": 900,
      "max": [
        0.99958992004394531,
        0.99996703863143921,
        1
      ],
      "min": [
        -0.99902617931365967,
        -0.9999658465385437,
        -1
      ],
      "type": "VEC3"
    },
    {
      "bufferView": 3,
      "byteOffset": 196800,
      "componentType": 5126,
      "count": 900,
      "max": [
        1,
        0.42261114716529846,
        0.99975848197937012,
        1
      ],
      "min": [
        -0.10255137830972672,
        -0.41871649026870728,
        -0.99940848350524902,
        -1
      ],
      "type": "VEC4"
    },
    {
      "bufferView": 0,
      "byteOffset": 295488,
      "componentType": 5125,
      "count": 5376,
      "max": [
        899
      ],
      "min": [
        0
      ],
      "type": "SCALAR"
    },
    {
      "bufferView": 2,
      "byteOffset": 318384,
      "componentType": 5126,
      "count": 65532,
      "max": [
        2.2860500812530518,
        0.015549999661743641,
        -4.5684700012207031
      ],
      "min": [
        -0.49753999710083008,
        -0.83556002378463745,
        -6.3955698013305664
      ],
      "type": "VEC3"
    },
    {
      "bufferView": 2,
      "byteOffset": 1104768,
      "componentType": 5126,
      "count": 65532,
      "max": [
        0.99994915723800659,
        0.99999648332595825,
        0.99999970197677612
      ],
      "min": [
        -0.99999350309371948,
        -0.99999970197677612,
        -0.99999994039535522
      ],
      "type": "VEC3"
    },
    {
      "bufferView": 3,
      "byteOffset": 211200,
      "componentType": 5126,
      "count": 65532,
      "max": [
        0.99999994039535522,
        0.99999117851257324,
        0.9999997615814209,
        1
      ],
      "min": [
        -0.9998481273651123,
        -0.99999302625656128,
        -0.99999988079071045,
        -1
      ],
      "type": "VEC4"
    },
    {
      "bufferView": 1,
      "componentType": 5126,
      "count": 65532,
      "max": [
        0.99765998125076294,
        0.99882000684738159
      ],
      "min": [
        0.0037700000684708357,
        0.0033499998971819878
      ],
      "type": "VEC2"
    },
    {
      "bufferView": 0,
      "byteOffset": 316992,
      "componentType": 5125,
      "count": 345936,
      "max": [
        65531
      ],
      "min": [
        0
      ],
      "type": "SCALAR"
    },
    {
      "bufferView": 2,
      "byteOffset": 1891152,
      "componentType": 5126,
      "count": 65532,
      "max": [
        2.4019200801849365,
        0.38034999370574951,
        -4.6241297721862793
      ],
      "min": [
        -0.49667999148368835,
        -0.8559499979019165,
        -6.395319938659668
      ],
      "type": "VEC3"
    },
    {
      "bufferView": 2,
      "byteOffset": 2677536,
      "componentType": 5126,
      "count": 65532,
      "max": [
        0.99998730421066284,
        0.99999946355819702,
        0.99999994039535522
      ],
      "min": [
        -0.99999350309371948,
        -0.99999958276748657,
        -0.99999994039535522
      ],
      "type": "VEC3"
    },
    {
      "bufferView": 3,
      "byteOffset": 1259712,
      "componentType": 5126,
      "count": 65532,
      "max": [
        0.99999994039535522,
        0.9999997615814209,
        0.99999982118606567,
        1
      ],
      "min": [
        -0.99997460842132568,
        -0.99999058246612549,
        -0.99999892711639404,
        -1
      ],
      "type": "VEC4"
    },
    {
      "bufferView": 1,
      "byteOffset": 524256,
      "componentType": 5126,
      "count": 65532,
      "max": [
        0.99694997072219849,
        0.9995800256729126
      ],
      "min": [
        0.0023300000466406345,
        0.0035600000992417336
      ],
      "type": "VEC2"
    },
    {
      "bufferView": 0,
      "byteOffset": 1700736,
      "componentType": 5125,
      "count": 325257,
      "max": [
        65531
      ],
      "min": [
        0
      ],
      "type": "SCALAR"
    },
    {
      "bufferView": 2,
      "byteOffset": 3463920,
      "componentType": 5126,
      "count": 65532,
      "max": [
        2.4026899337768555,
        0.87492001056671143,
        -4.568850040435791
      ],
      "min": [
        -0.49652999639511108,
        -0.85303997993469238,
        -6.3939099311828613
      ],
      "type": "VEC3"
    },
    {
      "bufferView": 2,
      "byteOffset": 4250304,
      "componentType": 5126,
      "count": 65532,
      "max": [
        0.99999505281448364,
        0.99999946355819702,
        0.99999994039535522
      ],
      "min": [
        -0.99997562170028687,
        -0.99995821714401245,
        -0.99999994039535522
      ],
      "type": "VEC3"
    },
    {
      "bufferView": 3,
      "byteOffset": 2308224,
      "componentType": 5126,
      "count": 65532,
      "max": [
        0.99999821186065674,
        0.99999982118606567,
        0.99999922513961792,
        1
      ],
      "min": [
        -0.99998700618743896,
        -0.99999922513961792,
        -0.99999237060546875,
        -1
      ],
      "type": "VEC4"
    },
    {
      "bufferView": 1,
      "byteOffset": 1048512,
      "componentType": 5126,
      "count": 65532,
      "max": [
        0.99753999710083008,
        0.99950999021530151
      ],
      "min": [
        0.0055399998091161251,
        0.0036400000099092722
      ],
      "type": "VEC2"
    },
    {
      "bufferView": 0,
      "byteOffset": 3001764,
      "componentType": 5125,
      "count": 311865,
      "max": [
        65531
      ],
      "min": [
        0
      ],
      "type": "SCALAR"
    },
    {
      "bufferView": 2,
      "byteOffset": 5036688,
      "componentType": 5126,
      "count": 65532,
      "max": [
        2.4035699367523193,
        0.89398002624511719,
        -4.5684700012207031
      ],
      "min": [
        0.16184000670909882,
        -0.59290999174118042,
        -6.3889999389648438
      ],
      "type": "VEC3"
    },
    {
      "bufferView": 2,
      "byteOffset": 5823072,
      "componentType": 5126,
      "count": 65532,
      "max": [
        0.99999219179153442,
        0.99999970197677612,
        0.99999839067459106
      ],
      "min": [
        -0.99999839067459106,
        -0.99842798709869385,
        -0.99999457597732544
      ],
      "type": "VEC3"
    },
    {
      "bufferView": 3,
      "byteOffset": 3356736,
      "componentType": 5126,
      "count": 65532,
      "max": [
        0.99999552965164185,
        1,
        0.99999862909317017,
        1
      ],
      "min": [
        -0.9999963641166687,
        -0.9999997615814209,
        -0.99998259544372559,
        -1
      ],
      "type": "VEC4"
    },
    {
      "bufferView": 1,
      "byteOffset": 1572768,
      "componentType": 5126,
      "count": 65532,
      "max": [
        0.99752002954483032,
        0.99985998868942261
      ],
      "min": [
        0.0012600000482052565,
        0.019300000742077827
      ],
      "type": "VEC2"
    },
    {
      "bufferView": 0,
      "byteOffset": 4249224,
      "componentType": 5125,
      "count": 312381,
      "max": [
        65531
      ],
      "min": [
        0
      ],
      "type": "SCALAR"
    },
    {
      "bufferView": 2,
      "byteOffset": 6609456,
      "componentType": 5126,
      "count": 37602,
      "max": [
        1.4638199806213379,
        0.89713001251220703,
        -4.6382198333740234
      ],
      "min": [
        0.22722999751567841,
        -0.6718599796295166,
        -6.3529601097106934
      ],
      "type": "VEC3"
    },
    {
      "bufferView": 2,
      "byteOffset": 7060680,
      "componentType": 5126,
      "count": 37602,
      "max": [
        0.99999409914016724,
        0.99999839067459106,
        0.99999076128005981
      ],
      "min": [
        -0.99997574090957642,
        -0.99986046552658081,
        -0.99988120794296265
      ],
      "type": "VEC3"
    },
    {
      "bufferView": 3,
      "byteOffset": 4405248,
      "componentType": 5126,
      "count": 37602,
      "max": [
        0.99983769655227661,
        0.99999982118606567,
        0.99974626302719116,
        1
      ],
      "min": [
        -0.9935983419418335,
        -0.99999827146530151,
        -0.99998122453689575,
        -1
      ],
      "type": "VEC4"
    },
    {
      "bufferView": 1,
      "byteOffset": 2097024,
      "componentType": 5126,
      "count": 37602,
      "max": [
        0.98818999528884888,
        0.99967998266220093
      ],
      "min": [
        0.0062799998559057713,
        0.0037799999117851257
      ],
      "type": "VEC2"
    },
    {
      "bufferView": 0,
      "byteOffset": 5498748,
      "componentType": 5125,
      "count": 195942,
      "max": [
        37601
      ],
      "min": [
        0
      ],
      "type": "SCALAR"
    },
    {
      "bufferView": 2,
      "byteOffset": 7511904,
      "componentType": 5126,
      "count": 1666,
      "max": [
        0.37847000360488892,
        0.28145000338554382,
        0.37847000360488892
      ],
      "min": [
        -0.37847000360488892,
        -0.62589001655578613,
        -0.37847000360488892
      ],
      "type": "VEC3"
    },
    {
      "bufferView": 2,
      "byteOffset": 7531896,
      "componentType": 5126,
      "count": 1666,
      "max": [
        0.99996906518936157,
        1,
        0.99996906518936157
      ],
      "min": [
        -0.99996906518936157,
        -1,
        -0.99996906518936157
      ],
      "type": "VEC3"
    },
    {
      "bufferView": 0,
      "byteOffset": 6282516,
      "componentType": 5125,
      "count": 9984,
      "max": [
        1665
      ],
      "min": [
        0
      ],
      "type": "SCALAR"
    }
  ],
  "asset": {
    "generator": "Sketchfab (OSG glTF plugin)",
    "version": "2.0"
  },
  "bufferViews": [
    {
      "buffer": 0,
      "byteLength": 6322452,
      "byteOffset": 0,
      "name": "floatBufferViews",
      "target": 34963
    },
    {
      "buffer": 0,
      "byteLength": 2397840,
      "byteOffset": 6322452,
      "byteStride": 8,
      "name": "floatBufferViews",
      "target": 34962
    },
    {
      "buffer": 0,
      "byteLength": 7551888,
      "byteOffset": 8720292,
      "byteStride": 12,
      "name": "floatBufferViews",
      "target": 34962
    },
    {
      "buffer": 0,
      "byteLength": 5006880,
      "byteOffset": 16272180,
      "byteStride": 16,
      "name": "floatBufferViews",
      "target": 34962
    }
  ],
  "buffers": [
    {
      "byteLength": 21279060,
      "uri": "scene.bin"
    }
  ],
  "images": [
    {
      "uri": "SketchfabPBRExtractor_baseColor.jpeg"
    },
    {
      "uri": "SketchfabPBRExtractor_metallicRoughness.png"
    }
  ],
  "materials": [
    {
      "doubleSided": true,
      "emissiveFactor": [
        0,
        0,
        0
      ],
      "name": "Cube.001_0",
      "pbrMetallicRoughness": {
        "baseColorFactor": [
          0.1249217397669138,
          0,
          0.15415396340000001,
          1
        ],
        "metallicFactor": 1,
        "roughnessFactor": 0.80659298779999999
      }
    },
    {
      "doubleSided": true,
      "name": "SketchfabPBRExtractor",
      "pbrMetallicRoughness": {
        "baseColorFactor": [
          1,
          1,
          1,
          1
        ],
        "baseColorTexture": {
          "index": 0,
          "texCoord": 0
        },
        "metallicFactor": 1,
        "metallicRoughnessTexture": {
          "index": 1,
          "texCoord": 0
        },
        "roughnessFactor": 1
      }
    },
    {
      "alphaCutoff": 0.5,
      "alphaMode": "BLEND",
      "doubleSided": true,
      "name": "Material.008",
      "pbrMetallicRoughness": {
        "baseColorFactor": [
          0.60532838499999997,
          0.25221149599999998,
          0.17649469109999999,
          0.14462652440000001
        ],
        "metallicFactor": 1,
        "roughnessFactor": 0.068788109799999997
      }
    },
    {
      "doubleSided": true,
      "emissiveFactor": [
        0,
        0,
        0
      ],
      "name": "Material.010",
      "pbrMetallicRoughness": {
        "baseColorFactor": [
          0.75796976250000003,
          0,
          1,
          1
        ],
        "metallicFactor": 1,
        "roughnessFactor": 0
      }
    }
  ],
  "meshes": [
    {
      "name": "Cube_0",
      "primitives": [
        {
          "attributes": {
            "NORMAL": 1,
            "POSITION": 0
          },
          "indices": 2,
          "material": 3,
          "mode": 4
        }
      ]
    },
    {
      "name": "Cube.006_0",
      "primitives": [
        {
          "attributes": {
            "NORMAL": 4,
            "POSITION": 3,
            "TANGENT": 5
          },
          "indices": 6,
          "material": 2,
          "mode": 4
        }
      ]
    },
    {
      "name": "Cube.002_0",
      "primitives": [
        {
          "attributes": {
            "NORMAL": 8,
            "POSITION": 7,
            "TANGENT": 9
          },
          "indices": 10,
          "material": 2,
          "mode": 4
        }
      ]
    },
    {
      "name": "Final500K_0",
      "primitives": [
        {
          "attributes": {
            "NORMAL": 12,
            "POSITION": 11,
            "TANGENT": 13,
            "TEXCOORD_0": 14
          },
          "indices": 15,
          "material": 1,
          "mode": 4
        }
      ]
    },
    {
      "name": "Final500K_0",
      "primitives": [
        {
          "attributes": {
            "NORMAL": 17,
            "POSITION": 16,
            "TANGENT": 18,
            "TEXCOORD_0": 19
          },
          "indices": 20,
          "material": 1,
          "mode": 4
        }
      ]
    },
    {
      "name": "Final500K_0",
      "primitives": [
        {
          "attributes": {
            "NORMAL": 22,
            "POSITION": 21,
            "TANGENT": 23,
            "TEXCOORD_0": 24
          },
          "indices": 25,
          "material": 1,
          "mode": 4
        }
      ]
    },
    {
      "name": "Final500K_0",
      "primitives": [
        {
          "attributes": {
            "NORMAL": 27,
            "POSITION": 26,
            "TANGENT": 28,
            "TEXCOORD_0": 29
          },
          "indices": 30,
          "material": 1,
          "mode": 4
        }
      ]
    },
    {
      "name": "Final500K_0",
      "primitives": [
        {
          "attributes": {
            "NORMAL": 32,
            "POSITION": 31,
            "TANGENT": 33,
            "TEXCOORD_0": 34
          },
          "indices": 35,
          "material": 1,
          "mode": 4
        }
      ]
    },
    {
      "name": "Cube.001_0",
      "primitives": [
        {
          "attributes": {
            "NORMAL": 37,
            "POSITION": 36
          },
          "indices": 38,
          "material": 0,
          "mode": 4
        }
      ]
    }
  ],
  "nodes": [
    {
      "children": [
        1
      ],
      "name": "RootNode (gltf orientation matrix)",
      "rotation": [
        -0.70710678118654746,
        -0,
        -0,
        0.70710678118654757
      ]
    },
    {
      "children": [
        2
      ],
      "name": "RootNode (model correction matrix)"
    },
    {
      "children": [
        3,
        6,
        9,
        12,
        19
      ],
      "name": "Root"
    },
    {
      "children": [
        5
      ],
      "matrix": [
        1.31714,
        0,
        0,
        0,
        0,
        -0,
        -0.52000000000000002,
        0,
        0,
        0.060250000000000012,
        -0,
        0,
        -2.2452399999999999,
        -0.50075000000000003,
        -5.6186299999999996,
        1
      ],
      "name": "Cube"
    },
    {
      "mesh": 0,
      "name": "Cube_0"
    },
    {
      "children": [
        4
      ],
      "name": "Geode"
    },
    {
      "children": [
        8
      ],
      "matrix": [
        0,
        -0.20869000000000001,
        0,
        0,
        -0,
        -0,
        -0.29461000000000004,
        0,
        0.29461000000000004,
        0,
        -0,
        0,
        -2.3836900000000001,
        0.8452400000000001,
        -5.7505699999999997,
        1
      ],
      "name": "Cube.006"
    },
    {
      "mesh": 1,
      "name": "Cube.006_0"
    },
    {
      "children": [
        7
      ],
      "name": "Geode"
    },
    {
      "children": [
        11
      ],
      "matrix": [
        1,
        0,
        0,
        0,
        0,
        -0,
        -1,
        0,
        0,
        1,
        -0,
        0,
        -2.3205,
        0.092020000000000032,
        -5.8243599999999995,
        1
      ],
      "name": "Cube.002"
    },
    {
      "mesh": 2,
      "name": "Cube.002_0"
    },
    {
      "children": [
        10
      ],
      "name": "Geode"
    },
    {
      "children": [
        18
      ],
      "matrix": [
        1,
        0,
        0,
        0,
        0,
        1,
        0,
        0,
        0,
        -0,
        1,
        0,
        -3.2206200000000003,
        0.0012700000000000003,
        0.0088400000000000024,
        1
      ],
      "name": "Final500K"
    },
    {
      "mesh": 3,
      "name": "Final500K_0"
    },
    {
      "mesh": 4,
      "name": "Final500K_0"
    },
    {
      "mesh": 5,
      "name": "Final500K_0"
    },
    {
      "mesh": 6,
      "name": "Final500K_0"
    },
    {
      "mesh": 7,
      "name": "Final500K_0"
    },
    {
      "children": [
        13,
        14,
        15,
        16,
        17
      ],
      "name": "Geode"
    },
    {
      "children": [
        21
      ],
      "matrix": [
        1,
        0,
        0,
        0,
        0,
        1,
        0,
        0,
        0,
        0,
        1,
        0,
        -2.3836900000000001,
        0.44999000000000006,
        -5.7505699999999997,
        1
      ],
      "name": "Cube.001"
    },
    {
      "mesh": 8,
      "name": "Cube.001_0"
    },
    {
      "children": [
        20
      ],
      "name": "Geode"
    }
  ],
  "samplers": [
    {
      "magFilter": 9729,
      "minFilter": 9987,
      "wrapS": 10497,
      "wrapT": 10497
    }
  ],
  "scene": 0,
  "scenes": [
    {
      "name": "OSG_Scene",
      "nodes": [
        0
      ]
    }
  ],
  "textures": [
    {
      "sampler": 0,
      "source": 0
    },
    {
      "sampler": 0,
      "source": 1
    }
  ]
}

